<?xml version="1.0" encoding="UTF-8" standalone="no"?>
<!DOCTYPE svg PUBLIC "-//W3C//DTD SVG 1.1//EN"
 "http://www.w3.org/Graphics/SVG/1.1/DTD/svg11.dtd">
<!-- Generated by graphviz version 2.47.0 (20210316.0004)
 -->
<!-- Title: dependencies Pages: 1 -->
<svg width="650pt" height="211pt"
 viewBox="0.00 0.00 650.00 211.00" xmlns="http://www.w3.org/2000/svg" xmlns:xlink="http://www.w3.org/1999/xlink">
<g id="graph0" class="graph" transform="scale(1 1) rotate(0) translate(4 207)">
<title>dependencies</title>
<polygon fill="white" stroke="transparent" points="-4,4 -4,-207 646,-207 646,4 -4,4"/>
<text text-anchor="start" x="300.01" y="-42.4" font-family="Times-12" font-weight="bold" font-size="14.00">Legend</text>
<polygon fill="#ffffb3" stroke="transparent" points="87,-10 87,-30 107,-30 107,-10 87,-10"/>
<text text-anchor="start" x="110.63" y="-15.4" font-family="Times-12" font-size="14.00"> &#160;Declarations</text>
<polygon fill="#8dd3c7" stroke="transparent" points="200,-10 200,-30 220,-30 220,-10 200,-10"/>
<text text-anchor="start" x="223.73" y="-15.4" font-family="Times-12" font-size="14.00"> &#160;Module</text>
<polygon fill="#80b1d3" stroke="transparent" points="286,-10 286,-30 306,-30 306,-10 286,-10"/>
<text text-anchor="start" x="309.78" y="-15.4" font-family="Times-12" font-size="14.00"> &#160;Bootstrap</text>
<polygon fill="#fdb462" stroke="transparent" points="383,-10 383,-30 403,-30 403,-10 383,-10"/>
<text text-anchor="start" x="406.67" y="-15.4" font-family="Times-12" font-size="14.00"> &#160;Providers</text>
<polygon fill="#fb8072" stroke="transparent" points="479,-10 479,-30 499,-30 499,-10 479,-10"/>
<text text-anchor="start" x="502.73" y="-15.4" font-family="Times-12" font-size="14.00"> &#160;Exports</text>
<g id="clust1" class="cluster">
<title>cluster_RoutingModule</title>
<polygon fill="none" stroke="black" stroke-dasharray="1,5" points="8,-70 8,-195 634,-195 634,-70 8,-70"/>
</g>
<g id="clust6" class="cluster">
<title>cluster_RoutingModule_providers</title>
<polygon fill="none" stroke="black" points="16,-78 16,-130 626,-130 626,-78 16,-78"/>
</g>
<!-- CreateRoutingUseCase -->
<g id="node1" class="node">
<title>CreateRoutingUseCase</title>
<ellipse fill="#fdb462" stroke="black" cx="517" cy="-104" rx="101.28" ry="18"/>
<text text-anchor="middle" x="517" y="-99.8" font-family="Times,serif" font-size="14.00">CreateRoutingUseCase</text>
</g>
<!-- RoutingModule -->
<g id="node4" class="node">
<title>RoutingModule</title>
<polygon fill="#8dd3c7" stroke="black" points="383.17,-187 380.17,-191 359.17,-191 356.17,-187 278.83,-187 278.83,-151 383.17,-151 383.17,-187"/>
<text text-anchor="middle" x="331" y="-164.8" font-family="Times,serif" font-size="14.00">RoutingModule</text>
</g>
<!-- CreateRoutingUseCase&#45;&gt;RoutingModule -->
<g id="edge1" class="edge">
<title>CreateRoutingUseCase&#45;&gt;RoutingModule</title>
<path fill="none" stroke="black" d="M517,-122.11C517,-141.34 517,-169 517,-169 517,-169 393.31,-169 393.31,-169"/>
<polygon fill="black" stroke="black" points="393.31,-165.5 383.31,-169 393.31,-172.5 393.31,-165.5"/>
</g>
<!-- PrismaService -->
<g id="node2" class="node">
<title>PrismaService</title>
<ellipse fill="#fdb462" stroke="black" cx="331" cy="-104" rx="66.63" ry="18"/>
<text text-anchor="middle" x="331" y="-99.8" font-family="Times,serif" font-size="14.00">PrismaService</text>
</g>
<!-- PrismaService&#45;&gt;RoutingModule -->
<g id="edge2" class="edge">
<title>PrismaService&#45;&gt;RoutingModule</title>
<path fill="none" stroke="black" d="M331,-122.11C331,-122.11 331,-140.99 331,-140.99"/>
<polygon fill="black" stroke="black" points="327.5,-140.99 331,-150.99 334.5,-140.99 327.5,-140.99"/>
</g>
<!-- RoutingPrismaRepository -->
<g id="node3" class="node">
<title>RoutingPrismaRepository</title>
<ellipse fill="#fdb462" stroke="black" cx="135" cy="-104" rx="111.22" ry="18"/>
<text text-anchor="middle" x="135" y="-99.8" font-family="Times,serif" font-size="14.00">RoutingPrismaRepository</text>
</g>
<!-- RoutingPrismaRepository&#45;&gt;RoutingModule -->
<g id="edge3" class="edge">
<title>RoutingPrismaRepository&#45;&gt;RoutingModule</title>
<path fill="none" stroke="black" d="M135,-122.11C135,-141.34 135,-169 135,-169 135,-169 268.73,-169 268.73,-169"/>
<polygon fill="black" stroke="black" points="268.73,-172.5 278.73,-169 268.73,-165.5 268.73,-172.5"/>
</g>
</g>
</svg>
