<?xml version="1.0" encoding="UTF-8" standalone="no"?>
<!DOCTYPE svg PUBLIC "-//W3C//DTD SVG 1.1//EN"
 "http://www.w3.org/Graphics/SVG/1.1/DTD/svg11.dtd">
<!-- Generated by graphviz version 2.47.0 (20210316.0004)
 -->
<!-- Title: dependencies Pages: 1 -->
<svg width="667pt" height="211pt"
 viewBox="0.00 0.00 667.00 211.00" xmlns="http://www.w3.org/2000/svg" xmlns:xlink="http://www.w3.org/1999/xlink">
<g id="graph0" class="graph" transform="scale(1 1) rotate(0) translate(4 207)">
<title>dependencies</title>
<polygon fill="white" stroke="transparent" points="-4,4 -4,-207 663,-207 663,4 -4,4"/>
<text text-anchor="start" x="308.51" y="-42.4" font-family="Times-12" font-weight="bold" font-size="14.00">Legend</text>
<polygon fill="#ffffb3" stroke="transparent" points="95.5,-10 95.5,-30 115.5,-30 115.5,-10 95.5,-10"/>
<text text-anchor="start" x="119.13" y="-15.4" font-family="Times-12" font-size="14.00"> &#160;Declarations</text>
<polygon fill="#8dd3c7" stroke="transparent" points="208.5,-10 208.5,-30 228.5,-30 228.5,-10 208.5,-10"/>
<text text-anchor="start" x="232.23" y="-15.4" font-family="Times-12" font-size="14.00"> &#160;Module</text>
<polygon fill="#80b1d3" stroke="transparent" points="294.5,-10 294.5,-30 314.5,-30 314.5,-10 294.5,-10"/>
<text text-anchor="start" x="318.28" y="-15.4" font-family="Times-12" font-size="14.00"> &#160;Bootstrap</text>
<polygon fill="#fdb462" stroke="transparent" points="391.5,-10 391.5,-30 411.5,-30 411.5,-10 391.5,-10"/>
<text text-anchor="start" x="415.17" y="-15.4" font-family="Times-12" font-size="14.00"> &#160;Providers</text>
<polygon fill="#fb8072" stroke="transparent" points="487.5,-10 487.5,-30 507.5,-30 507.5,-10 487.5,-10"/>
<text text-anchor="start" x="511.23" y="-15.4" font-family="Times-12" font-size="14.00"> &#160;Exports</text>
<g id="clust1" class="cluster">
<title>cluster_AppModule</title>
<polygon fill="none" stroke="black" stroke-dasharray="1,5" points="8,-70 8,-195 651,-195 651,-70 8,-70"/>
</g>
<g id="clust6" class="cluster">
<title>cluster_AppModule_providers</title>
<polygon fill="none" stroke="black" points="513,-78 513,-130 643,-130 643,-78 513,-78"/>
</g>
<g id="clust3" class="cluster">
<title>cluster_AppModule_imports</title>
<polygon fill="none" stroke="black" points="16,-78 16,-130 505,-130 505,-78 16,-78"/>
</g>
<!-- AlertModule -->
<g id="node1" class="node">
<title>AlertModule</title>
<polygon fill="#8dd3c7" stroke="black" points="497.31,-122 494.31,-126 473.31,-126 470.31,-122 408.69,-122 408.69,-86 497.31,-86 497.31,-122"/>
<text text-anchor="middle" x="453" y="-99.8" font-family="Times,serif" font-size="14.00">AlertModule</text>
</g>
<!-- AppModule -->
<g id="node5" class="node">
<title>AppModule</title>
<polygon fill="#8dd3c7" stroke="black" points="368.66,-187 365.66,-191 344.66,-191 341.66,-187 285.34,-187 285.34,-151 368.66,-151 368.66,-187"/>
<text text-anchor="middle" x="327" y="-164.8" font-family="Times,serif" font-size="14.00">AppModule</text>
</g>
<!-- AlertModule&#45;&gt;AppModule -->
<g id="edge1" class="edge">
<title>AlertModule&#45;&gt;AppModule</title>
<path fill="none" stroke="black" d="M453,-122.02C453,-139.37 453,-163 453,-163 453,-163 378.96,-163 378.96,-163"/>
<polygon fill="black" stroke="black" points="378.96,-159.5 368.96,-163 378.96,-166.5 378.96,-159.5"/>
</g>
<!-- GeolocationModule -->
<g id="node2" class="node">
<title>GeolocationModule</title>
<polygon fill="#8dd3c7" stroke="black" points="390.97,-122 387.97,-126 366.97,-126 363.97,-122 263.03,-122 263.03,-86 390.97,-86 390.97,-122"/>
<text text-anchor="middle" x="327" y="-99.8" font-family="Times,serif" font-size="14.00">GeolocationModule</text>
</g>
<!-- GeolocationModule&#45;&gt;AppModule -->
<g id="edge2" class="edge">
<title>GeolocationModule&#45;&gt;AppModule</title>
<path fill="none" stroke="black" d="M327,-122.11C327,-122.11 327,-140.99 327,-140.99"/>
<polygon fill="black" stroke="black" points="323.5,-140.99 327,-150.99 330.5,-140.99 323.5,-140.99"/>
</g>
<!-- PrismaModule -->
<g id="node3" class="node">
<title>PrismaModule</title>
<polygon fill="#8dd3c7" stroke="black" points="245.43,-122 242.43,-126 221.43,-126 218.43,-122 146.57,-122 146.57,-86 245.43,-86 245.43,-122"/>
<text text-anchor="middle" x="196" y="-99.8" font-family="Times,serif" font-size="14.00">PrismaModule</text>
</g>
<!-- PrismaModule&#45;&gt;AppModule -->
<g id="edge3" class="edge">
<title>PrismaModule&#45;&gt;AppModule</title>
<path fill="none" stroke="black" d="M196,-122.02C196,-139.37 196,-163 196,-163 196,-163 275.19,-163 275.19,-163"/>
<polygon fill="black" stroke="black" points="275.19,-166.5 285.19,-163 275.19,-159.5 275.19,-166.5"/>
</g>
<!-- RoutingModule -->
<g id="node4" class="node">
<title>RoutingModule</title>
<polygon fill="#8dd3c7" stroke="black" points="128.17,-122 125.17,-126 104.17,-126 101.17,-122 23.83,-122 23.83,-86 128.17,-86 128.17,-122"/>
<text text-anchor="middle" x="76" y="-99.8" font-family="Times,serif" font-size="14.00">RoutingModule</text>
</g>
<!-- RoutingModule&#45;&gt;AppModule -->
<g id="edge4" class="edge">
<title>RoutingModule&#45;&gt;AppModule</title>
<path fill="none" stroke="black" d="M76,-122.28C76,-143.32 76,-175 76,-175 76,-175 275.27,-175 275.27,-175"/>
<polygon fill="black" stroke="black" points="275.27,-178.5 285.27,-175 275.27,-171.5 275.27,-178.5"/>
</g>
<!-- AppService -->
<g id="node6" class="node">
<title>AppService</title>
<ellipse fill="#fdb462" stroke="black" cx="578" cy="-104" rx="56.74" ry="18"/>
<text text-anchor="middle" x="578" y="-99.8" font-family="Times,serif" font-size="14.00">AppService</text>
</g>
<!-- AppService&#45;&gt;AppModule -->
<g id="edge5" class="edge">
<title>AppService&#45;&gt;AppModule</title>
<path fill="none" stroke="black" d="M578,-122.28C578,-143.32 578,-175 578,-175 578,-175 378.73,-175 378.73,-175"/>
<polygon fill="black" stroke="black" points="378.73,-171.5 368.73,-175 378.73,-178.5 378.73,-171.5"/>
</g>
</g>
</svg>
