<?xml version="1.0" encoding="UTF-8" standalone="no"?>
<!DOCTYPE svg PUBLIC "-//W3C//DTD SVG 1.1//EN"
 "http://www.w3.org/Graphics/SVG/1.1/DTD/svg11.dtd">
<!-- Generated by graphviz version 2.47.0 (20210316.0004)
 -->
<!-- Title: dependencies Pages: 1 -->
<svg width="667pt" height="211pt"
 viewBox="0.00 0.00 667.00 211.00" xmlns="http://www.w3.org/2000/svg" xmlns:xlink="http://www.w3.org/1999/xlink">
<g id="graph0" class="graph" transform="scale(1 1) rotate(0) translate(4 207)">
<title>dependencies</title>
<polygon fill="white" stroke="transparent" points="-4,4 -4,-207 663,-207 663,4 -4,4"/>
<text text-anchor="start" x="308.51" y="-42.4" font-family="Times-12" font-weight="bold" font-size="14.00">Legend</text>
<polygon fill="#ffffb3" stroke="transparent" points="95.5,-10 95.5,-30 115.5,-30 115.5,-10 95.5,-10"/>
<text text-anchor="start" x="119.13" y="-15.4" font-family="Times-12" font-size="14.00"> &#160;Declarations</text>
<polygon fill="#8dd3c7" stroke="transparent" points="208.5,-10 208.5,-30 228.5,-30 228.5,-10 208.5,-10"/>
<text text-anchor="start" x="232.23" y="-15.4" font-family="Times-12" font-size="14.00"> &#160;Module</text>
<polygon fill="#80b1d3" stroke="transparent" points="294.5,-10 294.5,-30 314.5,-30 314.5,-10 294.5,-10"/>
<text text-anchor="start" x="318.28" y="-15.4" font-family="Times-12" font-size="14.00"> &#160;Bootstrap</text>
<polygon fill="#fdb462" stroke="transparent" points="391.5,-10 391.5,-30 411.5,-30 411.5,-10 391.5,-10"/>
<text text-anchor="start" x="415.17" y="-15.4" font-family="Times-12" font-size="14.00"> &#160;Providers</text>
<polygon fill="#fb8072" stroke="transparent" points="487.5,-10 487.5,-30 507.5,-30 507.5,-10 487.5,-10"/>
<text text-anchor="start" x="511.23" y="-15.4" font-family="Times-12" font-size="14.00"> &#160;Exports</text>
<g id="clust1" class="cluster">
<title>cluster_AppModule</title>
<polygon fill="none" stroke="black" stroke-dasharray="1,5" points="8,-70 8,-195 651,-195 651,-70 8,-70"/>
</g>
<g id="clust3" class="cluster">
<title>cluster_AppModule_imports</title>
<polygon fill="none" stroke="black" points="154,-78 154,-130 643,-130 643,-78 154,-78"/>
</g>
<g id="clust6" class="cluster">
<title>cluster_AppModule_providers</title>
<polygon fill="none" stroke="black" points="16,-78 16,-130 146,-130 146,-78 16,-78"/>
</g>
<!-- AlertModule -->
<g id="node1" class="node">
<title>AlertModule</title>
<polygon fill="#8dd3c7" stroke="black" points="635.31,-122 632.31,-126 611.31,-126 608.31,-122 546.69,-122 546.69,-86 635.31,-86 635.31,-122"/>
<text text-anchor="middle" x="591" y="-99.8" font-family="Times,serif" font-size="14.00">AlertModule</text>
</g>
<!-- AppModule -->
<g id="node5" class="node">
<title>AppModule</title>
<polygon fill="#8dd3c7" stroke="black" points="375.66,-187 372.66,-191 351.66,-191 348.66,-187 292.34,-187 292.34,-151 375.66,-151 375.66,-187"/>
<text text-anchor="middle" x="334" y="-164.8" font-family="Times,serif" font-size="14.00">AppModule</text>
</g>
<!-- AlertModule&#45;&gt;AppModule -->
<g id="edge1" class="edge">
<title>AlertModule&#45;&gt;AppModule</title>
<path fill="none" stroke="black" d="M591,-122.28C591,-143.32 591,-175 591,-175 591,-175 385.86,-175 385.86,-175"/>
<polygon fill="black" stroke="black" points="385.86,-171.5 375.86,-175 385.86,-178.5 385.86,-171.5"/>
</g>
<!-- GeolocationModule -->
<g id="node2" class="node">
<title>GeolocationModule</title>
<polygon fill="#8dd3c7" stroke="black" points="528.97,-122 525.97,-126 504.97,-126 501.97,-122 401.03,-122 401.03,-86 528.97,-86 528.97,-122"/>
<text text-anchor="middle" x="465" y="-99.8" font-family="Times,serif" font-size="14.00">GeolocationModule</text>
</g>
<!-- GeolocationModule&#45;&gt;AppModule -->
<g id="edge2" class="edge">
<title>GeolocationModule&#45;&gt;AppModule</title>
<path fill="none" stroke="black" d="M465,-122.02C465,-139.37 465,-163 465,-163 465,-163 385.81,-163 385.81,-163"/>
<polygon fill="black" stroke="black" points="385.81,-159.5 375.81,-163 385.81,-166.5 385.81,-159.5"/>
</g>
<!-- PrismaModule -->
<g id="node3" class="node">
<title>PrismaModule</title>
<polygon fill="#8dd3c7" stroke="black" points="383.43,-122 380.43,-126 359.43,-126 356.43,-122 284.57,-122 284.57,-86 383.43,-86 383.43,-122"/>
<text text-anchor="middle" x="334" y="-99.8" font-family="Times,serif" font-size="14.00">PrismaModule</text>
</g>
<!-- PrismaModule&#45;&gt;AppModule -->
<g id="edge3" class="edge">
<title>PrismaModule&#45;&gt;AppModule</title>
<path fill="none" stroke="black" d="M334,-122.11C334,-122.11 334,-140.99 334,-140.99"/>
<polygon fill="black" stroke="black" points="330.5,-140.99 334,-150.99 337.5,-140.99 330.5,-140.99"/>
</g>
<!-- RoutingModule -->
<g id="node4" class="node">
<title>RoutingModule</title>
<polygon fill="#8dd3c7" stroke="black" points="266.17,-122 263.17,-126 242.17,-126 239.17,-122 161.83,-122 161.83,-86 266.17,-86 266.17,-122"/>
<text text-anchor="middle" x="214" y="-99.8" font-family="Times,serif" font-size="14.00">RoutingModule</text>
</g>
<!-- RoutingModule&#45;&gt;AppModule -->
<g id="edge4" class="edge">
<title>RoutingModule&#45;&gt;AppModule</title>
<path fill="none" stroke="black" d="M214,-122.02C214,-139.37 214,-163 214,-163 214,-163 282.03,-163 282.03,-163"/>
<polygon fill="black" stroke="black" points="282.03,-166.5 292.03,-163 282.03,-159.5 282.03,-166.5"/>
</g>
<!-- AppService -->
<g id="node6" class="node">
<title>AppService</title>
<ellipse fill="#fdb462" stroke="black" cx="81" cy="-104" rx="56.74" ry="18"/>
<text text-anchor="middle" x="81" y="-99.8" font-family="Times,serif" font-size="14.00">AppService</text>
</g>
<!-- AppService&#45;&gt;AppModule -->
<g id="edge5" class="edge">
<title>AppService&#45;&gt;AppModule</title>
<path fill="none" stroke="black" d="M81,-122.28C81,-143.32 81,-175 81,-175 81,-175 282.22,-175 282.22,-175"/>
<polygon fill="black" stroke="black" points="282.22,-178.5 292.22,-175 282.22,-171.5 282.22,-178.5"/>
</g>
</g>
</svg>
