<?xml version="1.0" encoding="UTF-8" standalone="no"?>
<!DOCTYPE svg PUBLIC "-//W3C//DTD SVG 1.1//EN"
 "http://www.w3.org/Graphics/SVG/1.1/DTD/svg11.dtd">
<!-- Generated by graphviz version 2.47.0 (20210316.0004)
 -->
<!-- Title: dependencies Pages: 1 -->
<svg width="606pt" height="211pt"
 viewBox="0.00 0.00 606.00 211.00" xmlns="http://www.w3.org/2000/svg" xmlns:xlink="http://www.w3.org/1999/xlink">
<g id="graph0" class="graph" transform="scale(1 1) rotate(0) translate(4 207)">
<title>dependencies</title>
<polygon fill="white" stroke="transparent" points="-4,4 -4,-207 602,-207 602,4 -4,4"/>
<text text-anchor="start" x="278.01" y="-42.4" font-family="Times-12" font-weight="bold" font-size="14.00">Legend</text>
<polygon fill="#ffffb3" stroke="transparent" points="65,-10 65,-30 85,-30 85,-10 65,-10"/>
<text text-anchor="start" x="88.63" y="-15.4" font-family="Times-12" font-size="14.00"> &#160;Declarations</text>
<polygon fill="#8dd3c7" stroke="transparent" points="178,-10 178,-30 198,-30 198,-10 178,-10"/>
<text text-anchor="start" x="201.73" y="-15.4" font-family="Times-12" font-size="14.00"> &#160;Module</text>
<polygon fill="#80b1d3" stroke="transparent" points="264,-10 264,-30 284,-30 284,-10 264,-10"/>
<text text-anchor="start" x="287.78" y="-15.4" font-family="Times-12" font-size="14.00"> &#160;Bootstrap</text>
<polygon fill="#fdb462" stroke="transparent" points="361,-10 361,-30 381,-30 381,-10 361,-10"/>
<text text-anchor="start" x="384.67" y="-15.4" font-family="Times-12" font-size="14.00"> &#160;Providers</text>
<polygon fill="#fb8072" stroke="transparent" points="457,-10 457,-30 477,-30 477,-10 457,-10"/>
<text text-anchor="start" x="480.73" y="-15.4" font-family="Times-12" font-size="14.00"> &#160;Exports</text>
<g id="clust1" class="cluster">
<title>cluster_AlertModule</title>
<polygon fill="none" stroke="black" stroke-dasharray="1,5" points="8,-70 8,-195 590,-195 590,-70 8,-70"/>
</g>
<g id="clust6" class="cluster">
<title>cluster_AlertModule_providers</title>
<polygon fill="none" stroke="black" points="16,-78 16,-130 582,-130 582,-78 16,-78"/>
</g>
<!-- AlertPrismaRepository -->
<g id="node1" class="node">
<title>AlertPrismaRepository</title>
<ellipse fill="#fdb462" stroke="black" cx="474" cy="-104" rx="100.15" ry="18"/>
<text text-anchor="middle" x="474" y="-99.8" font-family="Times,serif" font-size="14.00">AlertPrismaRepository</text>
</g>
<!-- AlertModule -->
<g id="node4" class="node">
<title>AlertModule</title>
<polygon fill="#8dd3c7" stroke="black" points="310.31,-187 307.31,-191 286.31,-191 283.31,-187 221.69,-187 221.69,-151 310.31,-151 310.31,-187"/>
<text text-anchor="middle" x="266" y="-164.8" font-family="Times,serif" font-size="14.00">AlertModule</text>
</g>
<!-- AlertPrismaRepository&#45;&gt;AlertModule -->
<g id="edge1" class="edge">
<title>AlertPrismaRepository&#45;&gt;AlertModule</title>
<path fill="none" stroke="black" d="M474,-122.11C474,-141.34 474,-169 474,-169 474,-169 320.37,-169 320.37,-169"/>
<polygon fill="black" stroke="black" points="320.37,-165.5 310.37,-169 320.37,-172.5 320.37,-165.5"/>
</g>
<!-- CreateAlertUseCase -->
<g id="node2" class="node">
<title>CreateAlertUseCase</title>
<ellipse fill="#fdb462" stroke="black" cx="266" cy="-104" rx="89.72" ry="18"/>
<text text-anchor="middle" x="266" y="-99.8" font-family="Times,serif" font-size="14.00">CreateAlertUseCase</text>
</g>
<!-- CreateAlertUseCase&#45;&gt;AlertModule -->
<g id="edge2" class="edge">
<title>CreateAlertUseCase&#45;&gt;AlertModule</title>
<path fill="none" stroke="black" d="M266,-122.11C266,-122.11 266,-140.99 266,-140.99"/>
<polygon fill="black" stroke="black" points="262.5,-140.99 266,-150.99 269.5,-140.99 262.5,-140.99"/>
</g>
<!-- PrismaService -->
<g id="node3" class="node">
<title>PrismaService</title>
<ellipse fill="#fdb462" stroke="black" cx="91" cy="-104" rx="66.63" ry="18"/>
<text text-anchor="middle" x="91" y="-99.8" font-family="Times,serif" font-size="14.00">PrismaService</text>
</g>
<!-- PrismaService&#45;&gt;AlertModule -->
<g id="edge3" class="edge">
<title>PrismaService&#45;&gt;AlertModule</title>
<path fill="none" stroke="black" d="M91,-122.11C91,-141.34 91,-169 91,-169 91,-169 211.84,-169 211.84,-169"/>
<polygon fill="black" stroke="black" points="211.84,-172.5 221.84,-169 211.84,-165.5 211.84,-172.5"/>
</g>
</g>
</svg>
